<svg height="511pt" viewBox="0 0 511 511.99945" width="511pt" xmlns="http://www.w3.org/2000/svg">
    <path fill="red" d="m485.988281 347.5c-1.132812 0-2.285156-.09375-3.4375-.296875-10.886719-1.886719-18.175781-12.238281-16.289062-23.121094 3.882812-22.40625 5.972656-45.3125 6.210937-68.082031-.832031-80.363281-24.265625-158.191406-67.765625-225.097656-6.023437-9.257813-3.394531-21.648438 5.863281-27.667969 9.261719-6.019531 21.648438-3.394531 27.671876 5.867187 47.6875 73.34375 73.355468 158.652344 74.230468 246.699219v.398438c-.25 24.988281-2.535156 50.125-6.800781 74.71875-1.6875 9.726562-10.136719 16.582031-19.683594 16.582031zm-47.746093 155.398438c15.46875-23.789063 28.785156-49.167969 39.585937-75.429688 4.203125-10.214844-.675781-21.902344-10.890625-26.101562-10.214844-4.203126-21.902344.671874-26.101562 10.886718-9.855469 23.96875-22.011719 47.128906-36.128907 68.839844-6.023437 9.261719-3.394531 21.648438 5.863281 27.671875 3.367188 2.1875 7.144532 3.234375 10.882813 3.234375 6.542969 0 12.957031-3.207031 16.789063-9.101562zm-97.171876-52.125c38.601563-57.613282 59.492188-124.875 60.410157-194.511719.003906-.175781.003906-.351563 0-.527344-.917969-69.636719-21.808594-136.898437-60.410157-194.507813-6.148437-9.175781-18.574218-11.632812-27.746093-5.484374-9.179688 6.148437-11.632813 18.570312-5.484375 27.746093 34.230468 51.089844 52.777344 110.734375 53.640625 172.511719-.863281 61.773438-19.410157 121.417969-53.640625 172.507812-6.148438 9.175782-3.691406 21.597657 5.484375 27.746094 3.417969 2.292969 7.285156 3.386719 11.113281 3.386719 6.445312 0 12.773438-3.109375 16.632812-8.867187zm-88.074218-83.46875c10.464844-3 18.984375-10.894532 22.789062-21.109376 11.019532-29.589843 16.304688-60.066406 15.707032-90.589843-.957032-48.707031-16.503907-96.011719-44.957032-136.796875-6.320312-9.054688-18.789062-11.277344-27.847656-4.957032-9.058594 6.320313-11.277344 18.789063-4.957031 27.847657 23.910156 34.269531 36.96875 73.929687 37.769531 114.691406.453125 23.035156-3.136719 46.105469-10.671875 68.691406l-183.457031-141.054687c-7.988282-6.144532-18.480469-7.941406-28.066406-4.816406-9.566407 3.125-16.960938 10.75-19.78125 20.40625-4.117188 14.082031-9.023438 36.511718-9.023438 63.378906 0 47.339844 27.066406 89.640625 28.214844 91.417968 6 9.253907 18.34375 11.882813 27.609375 5.910157 9.269531-5.976563 11.9375-18.347657 5.980469-27.628907-.214844-.339843-21.804688-34.398437-21.804688-69.699218 0-14.757813 1.792969-27.878906 3.988281-38.417969l178.109375 136.941406c6.117188 4.699219 13.378906 7.144531 20.820313 7.144531 3.1875 0 6.40625-.445312 9.578125-1.359374zm0 0"/>
</svg>